<svg width="25" height="20" viewBox="0 0 25 20" fill="none" xmlns="http://www.w3.org/2000/svg">
<path d="M12.2712 15.6986C12.5459 15.6986 12.7759 15.6057 12.9612 15.4199C13.1468 15.2343 13.2396 15.0042 13.2396 14.7295C13.2396 14.4548 13.1467 14.2248 12.9609 14.0394C12.7751 13.8539 12.545 13.7611 12.2705 13.7611C11.9958 13.7611 11.7658 13.854 11.5804 14.0398C11.3949 14.2256 11.3021 14.4558 11.3021 14.7305C11.3021 15.005 11.395 15.235 11.5808 15.4206C11.7665 15.6059 11.9967 15.6986 12.2712 15.6986ZM12.2712 10.6562C12.5459 10.6562 12.7759 10.5634 12.9612 10.3776C13.1468 10.1918 13.2396 9.96166 13.2396 9.68718C13.2396 9.41248 13.1467 9.18246 12.9609 8.9971C12.7751 8.81153 12.545 8.71875 12.2705 8.71875C11.9958 8.71875 11.7658 8.81164 11.5804 8.99743C11.3949 9.18321 11.3021 9.41334 11.3021 9.68782C11.3021 9.96252 11.395 10.1925 11.5808 10.3779C11.7665 10.5635 11.9967 10.6562 12.2712 10.6562ZM12.2712 5.61391C12.5459 5.61391 12.7759 5.52101 12.9612 5.33523C13.1468 5.14944 13.2396 4.91921 13.2396 4.64451C13.2396 4.37003 13.1467 4.14001 12.9609 3.95444C12.7751 3.76908 12.545 3.67641 12.2705 3.67641C11.9958 3.67641 11.7658 3.7693 11.5804 3.95508C11.3949 4.14065 11.3021 4.37078 11.3021 4.64548C11.3021 4.92017 11.395 5.1502 11.5808 5.33555C11.7665 5.52112 11.9967 5.61391 12.2712 5.61391ZM22.2067 19.375H2.33501C1.69284 19.375 1.14312 19.1464 0.685875 18.6891C0.228625 18.2319 0 17.6822 0 17.04V12.7927C0.735389 12.6519 1.34979 12.2912 1.84321 11.7106C2.33663 11.1302 2.58333 10.4558 2.58333 9.6875C2.58333 8.91917 2.33663 8.24481 1.84321 7.66443C1.34979 7.08382 0.735389 6.72313 0 6.58233V2.33501C0 1.69284 0.228625 1.14312 0.685875 0.685875C1.14312 0.228625 1.69284 0 2.33501 0H22.2067C22.8488 0 23.3985 0.228625 23.8558 0.685875C24.313 1.14312 24.5417 1.69284 24.5417 2.33501V6.58233C23.8063 6.72313 23.1919 7.08382 22.6985 7.66443C22.205 8.24481 21.9583 8.91917 21.9583 9.6875C21.9583 10.4558 22.205 11.1302 22.6985 11.7106C23.1919 12.2912 23.8063 12.6519 24.5417 12.7927V17.04C24.5417 17.6822 24.313 18.2319 23.8558 18.6891C23.3985 19.1464 22.8488 19.375 22.2067 19.375ZM22.2067 17.4375C22.3227 17.4375 22.4179 17.4003 22.4924 17.3258C22.5669 17.2513 22.6042 17.156 22.6042 17.04V14.1437C21.8076 13.6701 21.178 13.0405 20.7151 12.2547C20.2523 11.4689 20.0208 10.6132 20.0208 9.6875C20.0208 8.76181 20.2523 7.90608 20.7151 7.12031C21.178 6.33455 21.8076 5.70486 22.6042 5.23125V2.33501C22.6042 2.21898 22.5669 2.12372 22.4924 2.04923C22.4179 1.97474 22.3227 1.9375 22.2067 1.9375H2.33501C2.21898 1.9375 2.12372 1.97474 2.04923 2.04923C1.97474 2.12372 1.9375 2.21898 1.9375 2.33501V5.23125C2.73403 5.70486 3.36372 6.33455 3.82656 7.12031C4.28941 7.90608 4.52083 8.76181 4.52083 9.6875C4.52083 10.6132 4.28941 11.4689 3.82656 12.2547C3.36372 13.0405 2.73403 13.6701 1.9375 14.1437V17.04C1.9375 17.156 1.97474 17.2513 2.04923 17.3258C2.12372 17.4003 2.21898 17.4375 2.33501 17.4375H22.2067Z" fill="url(#paint0_linear_1_1619)"/>
<defs>
<linearGradient id="paint0_linear_1_1619" x1="12.2708" y1="0" x2="12.2708" y2="19.375" gradientUnits="userSpaceOnUse">
<stop stop-color="#D792FF"/>
<stop offset="1" stop-color="#FF7439"/>
</linearGradient>
</defs>
</svg>
